<svg xmlns="http://www.w3.org/2000/svg" version="1.1" xmlns:xlink="http://www.w3.org/1999/xlink" xmlns:svgjs="http://svgjs.dev/svgjs" width="256" height="256"><svg width="256" height="256" viewBox="0 0 256 256" fill="none" xmlns="http://www.w3.org/2000/svg">
<path d="M172.103 67.2865C163.573 58.7538 149.939 56.7255 133.718 61.598C118.779 66.1325 103.117 76.0756 89.6113 89.5974C76.0938 103.119 66.1538 118.798 61.6207 133.718C56.7148 149.909 58.7424 163.548 67.319 172.115L82.8409 187.642C88.3062 193.109 95.9972 196 105.098 196H105.133C123.638 196 146.14 184.541 165.333 165.331C179.293 151.366 189.361 135.385 193.685 120.325C198.206 104.565 196.062 91.241 187.637 82.8132L172.103 67.2865ZM163.468 75.9474C166.65 79.1181 168.269 83.6991 168.281 89.5508C168.293 104.425 157.653 124.684 141.176 141.167C124.71 157.638 104.481 168.269 89.6113 168.269H89.5763C84.2276 168.269 79.9393 166.905 76.8163 164.235L75.9539 163.384C70.6984 158.174 69.7545 148.884 73.3087 137.238C77.2241 124.241 86.0804 110.381 98.2345 98.2234C110.389 86.0655 124.232 77.2063 137.237 73.278C148.844 69.746 158.341 70.7485 163.445 75.9358L163.468 75.9474Z" fill="#EC3B3B"></path>
</svg><style>@media (prefers-color-scheme: light) { :root { filter: none; } }
@media (prefers-color-scheme: dark) { :root { filter: none; } }
</style></svg>